<?xml version="1.0" standalone="no"?><!DOCTYPE svg PUBLIC "-//W3C//DTD SVG 1.1//EN" "http://www.w3.org/Graphics/SVG/1.1/DTD/svg11.dtd"><svg t="1741338737539" class="icon" viewBox="0 0 1033 1024" version="1.1" xmlns="http://www.w3.org/2000/svg" p-id="20459" xmlns:xlink="http://www.w3.org/1999/xlink" width="201.7578125" height="200"><path d="M805.546667 636.373333a43.669333 43.669333 0 0 0 40.533333 24.96H853.333333a106.666667 106.666667 0 0 1-213.333333 0h7.253333a43.669333 43.669333 0 0 0 40.533334-24.96 64 64 0 0 1 117.76 0zM334.08 661.333333H341.333333a106.666667 106.666667 0 0 1-213.333333 0h7.253333a43.669333 43.669333 0 0 0 40.533334-24.96 64 64 0 0 1 117.76 0 43.669333 43.669333 0 0 0 40.533333 24.96z" fill="#C1CAD4" p-id="20460"></path><path d="M662.613333 293.546667a928.554667 928.554667 0 0 1 234.026667 89.386666L896 384H661.333333v-85.333333zM597.333333 278.613333V384h-170.666666l61.44-122.88c34.133333 3.84 71.253333 9.6 109.226666 17.493333z" fill="#87D7F5" p-id="20461"></path><path d="M85.333333 533.333333v106.666667H42.666667a21.333333 21.333333 0 0 1-21.333334-21.333333v-64a21.333333 21.333333 0 0 1 21.333334-21.333334z" fill="#F3596B" p-id="20462"></path><path d="M1002.666667 640v21.333333h-156.586667a43.669333 43.669333 0 0 1-40.533333-24.96 64 64 0 0 0-117.76 0 43.669333 43.669333 0 0 1-40.533334 24.96H597.333333v-149.333333c213.333333 0 405.333333 106.666667 405.333334 106.666667zM490.666667 618.666667v42.666666h-156.586667a43.669333 43.669333 0 0 1-40.533333-24.96 64 64 0 0 0-117.76 0A43.669333 43.669333 0 0 1 135.253333 661.333333H85.333333v-149.333333c213.333333 0 405.333333 106.666667 405.333334 106.666667z" fill="#7C8691" p-id="20463"></path><path d="M597.333333 384v-105.386667c21.546667 4.266667 43.52 9.173333 65.28 14.933334L661.333333 298.666667v85.333333h234.666667l0.64-1.066667C960.426667 420.053333 1002.666667 463.786667 1002.666667 512v106.666667s-192-106.666667-405.333334-106.666667v149.333333h-106.666666v-42.666666s-192-106.666667-405.333334-106.666667v-85.333333a42.794667 42.794667 0 0 1 42.666667-42.666667h213.333333l64-128a749.738667 749.738667 0 0 1 82.773334 5.12L426.666667 384z" fill="#E65263" p-id="20464"></path><path d="M597.333333 278.613333V384h-170.666666" fill="#F8FAFD" p-id="20465"></path><path d="M597.333333 512v42.666667a1445.184 1445.184 0 0 1 405.333334 64s-192-106.666667-405.333334-106.666667zM85.333333 512v42.666667a1445.184 1445.184 0 0 1 405.333334 64s-192-106.666667-405.333334-106.666667z" fill="#C1CAD4" p-id="20466"></path><path d="M234.666667 661.333333m-42.666667 0a42.666667 42.666667 0 1 0 85.333333 0 42.666667 42.666667 0 1 0-85.333333 0Z" fill="#7C8691" p-id="20467"></path><path d="M746.666667 661.333333m-42.666667 0a42.666667 42.666667 0 1 0 85.333333 0 42.666667 42.666667 0 1 0-85.333333 0Z" fill="#7C8691" p-id="20468"></path><path d="M490.666667 682.666667h-156.586667a64.746667 64.746667 0 0 1-60.117333-37.802667 42.666667 42.666667 0 0 0-78.464-0.298667A64.853333 64.853333 0 0 1 135.253333 682.666667H85.333333a21.333333 21.333333 0 0 1-21.333333-21.333334v-149.333333a21.333333 21.333333 0 0 1 21.333333-21.333333c216.384 0 407.658667 104.896 415.701334 109.354666A21.333333 21.333333 0 0 1 512 618.666667v42.666666a21.333333 21.333333 0 0 1-21.333333 21.333334z m-256-106.666667a84.778667 84.778667 0 0 1 78.570666 52.181333 22.442667 22.442667 0 0 0 20.842667 11.818667H469.333333v-8.405333a939.328 939.328 0 0 0-362.666666-97.898667V640h28.586666a22.485333 22.485333 0 0 0 20.970667-12.096A84.650667 84.650667 0 0 1 234.666667 576zM1002.666667 682.666667h-156.586667a64.746667 64.746667 0 0 1-60.117333-37.802667 42.666667 42.666667 0 0 0-78.464-0.298667A64.853333 64.853333 0 0 1 647.253333 682.666667H597.333333a21.333333 21.333333 0 0 1-21.333333-21.333334v-149.333333a21.333333 21.333333 0 0 1 21.333333-21.333333c216.384 0 407.658667 104.896 415.701334 109.354666l-20.714667 37.312A942.933333 942.933333 0 0 0 618.666667 533.696V640h28.586666a22.485333 22.485333 0 0 0 20.970667-12.096 85.333333 85.333333 0 0 1 157.013333 0.277333 22.442667 22.442667 0 0 0 20.842667 11.818667H1024v21.333333a21.333333 21.333333 0 0 1-21.333333 21.333334z" fill="#2A3244" p-id="20469"></path><path d="M85.333333 661.333333H42.666667a42.666667 42.666667 0 0 1-42.666667-42.666666v-64a42.666667 42.666667 0 0 1 42.666667-42.666667h42.666666v42.666667H42.666667v64h42.666666z" fill="#2A3244" p-id="20470"></path><path d="M1024 640h-42.666667v-128c0-45.546667-51.904-85.333333-95.424-110.634667a909.418667 909.418667 0 0 0-228.501333-87.146666 1050.282667 1050.282667 0 0 0-64.213333-14.677334 1168.277333 1168.277333 0 0 0-107.477334-17.216 799.552 799.552 0 0 0-67.285333-4.842666l-57.898667 116.053333A21.333333 21.333333 0 0 1 341.333333 405.333333H128a21.333333 21.333333 0 0 0-21.333333 21.333334v85.333333H64v-85.333333a64 64 0 0 1 64-64h200.149333l58.090667-116.202667A21.333333 21.333333 0 0 1 405.333333 234.666667a766.421333 766.421333 0 0 1 85.162667 5.269333 1216.64 1216.64 0 0 1 111.189333 17.792c23.466667 4.629333 45.824 9.749333 66.368 15.189333a958.869333 958.869333 0 0 1 239.381334 91.733334C984.768 409.6 1024 459.157333 1024 512zM490.666667 640h106.666666v42.666667h-106.666666z" fill="#2A3244" p-id="20471"></path><path d="M597.333333 405.333333h-170.666666a21.333333 21.333333 0 0 1-19.093334-30.869333l64-128 38.186667 19.072L461.184 362.666667H576v-84.053334l42.666667-1.28v106.666667a21.333333 21.333333 0 0 1-21.333334 21.333333zM896 405.333333H661.333333a21.333333 21.333333 0 0 1-21.333333-21.333333v-85.333333h42.666667v64h213.333333zM234.666667 789.333333a128.128 128.128 0 0 1-128-128h42.666666a85.333333 85.333333 0 0 0 170.666667 0h42.666667a128.128 128.128 0 0 1-128 128zM746.666667 789.333333a128.128 128.128 0 0 1-128-128h42.666666a85.333333 85.333333 0 0 0 170.666667 0h42.666667a128.128 128.128 0 0 1-128 128z" fill="#2A3244" p-id="20472"></path><path d="M213.333333 640h42.666667v42.666667h-42.666667zM725.333333 640h42.666667v42.666667h-42.666667z" fill="#2A3244" p-id="20473"></path></svg>