<?xml version="1.0" standalone="no"?><!DOCTYPE svg PUBLIC "-//W3C//DTD SVG 1.1//EN" "http://www.w3.org/Graphics/SVG/1.1/DTD/svg11.dtd"><svg t="1741339142266" class="icon" viewBox="0 0 1024 1024" version="1.1" xmlns="http://www.w3.org/2000/svg" p-id="30069" xmlns:xlink="http://www.w3.org/1999/xlink" width="200" height="200"><path d="M896 204.416c0-59.84-48.576-108.416-108.416-108.416H236.416C176.64 96 128 144.576 128 204.416v551.168c0 59.84 48.576 108.416 108.416 108.416h551.168c59.84 0 108.416-48.576 108.416-108.416V204.416z m-131.776 226.56a233.92 233.92 0 0 1-136.256-42.24v194.816a184.64 184.64 0 0 1-143.04 180.352c-114.304 26.048-211.072-56.64-223.232-155.392-12.8-98.752 50.24-185.344 146.752-204.8 18.88-3.84 47.232-3.84 61.888-0.512v104.32c-4.48-1.088-8.704-2.176-13.184-2.752a80.832 80.832 0 0 0-63.68 144.256c25.536 19.968 53.824 22.72 82.688 9.408 28.864-12.736 44.352-36.032 47.68-67.648 0.576-4.48 0.576-9.472 0.576-14.464V201.792c0-10.56 0-10.048 10.624-10.048H617.6c6.144 0 8.32 0.832 8.96 8.064 4.352 64.384 53.248 119.168 115.968 127.488 6.656 1.152 13.76 1.6 21.632 2.112v101.568z" fill="#000000" p-id="30070"></path></svg>